# xmcd CD database file
# Copyright (C) 1997 Ti Kan
# 
# Track frame offsets:
#     183
#     15783
#     30483
#     46758
#     65508
#     76833
#     85945
#     101208
#     117708
#     134958
#     152958
#     165108
#     180033
#     194283
#     210783
#     232345
#     252933
#     267858
# 
# Disc length: 3719 seconds
# 
# Revision: 1
# Processed by: cddbd v1.4b41PL1 Copyright (c) Steve Scherf et al.
# Submitted via: DiscPlay 4.0.3
# 
DISCID=e40e8512
DTITLE=Cuby and Blizzards - The Singles Collection [CD2]
DYEAR=1900
DGENRE=
TTITLE0=Window of my eyes (1968)
TTITLE1=Checkin' up on my baby (1968)
TTITLE2=Nostalgic toilet (1968)
TTITLE3=116 A Queensway (1968)
TTITLE4=Appleknockers flophouse (1969)
TTITLE5=Because of illness (1969)
TTITLE6=Thursday night (1970)
TTITLE7=Wee wee baby (1970)
TTITLE8=Back street (1971)
TTITLE9=Easy to leave, hard to forget (1971)
TTITLE10=Pawn broker (1972)
TTITLE11=Straight, no chaser (1972)
TTITLE12=Everytime (1972)
TTITLE13=Sometimes (1972)
TTITLE14=King of the world (1968)
TTITLE15=No shoes (1968)
TTITLE16=Big blue-eyed girl (1968)
TTITLE17=Goin' home (1968)
EXTD=
EXTT0=
EXTT1=
EXTT2=
EXTT3=
EXTT4=
EXTT5=
EXTT6=
EXTT7=
EXTT8=
EXTT9=
EXTT10=
EXTT11=
EXTT12=
EXTT13=
EXTT14=
EXTT15=
EXTT16=
EXTT17=
PLAYORDER=
